<svg xmlns="http://www.w3.org/2000/svg" xmlns:xlink="http://www.w3.org/1999/xlink" aria-hidden="true" role="img" style="vertical-align: -0.125em;" width="1em" height="1em" preserveAspectRatio="xMidYMid meet" viewBox="0 0 24 24"><path class="uim-tertiary" d="M22 10H2v9a3 3 0 0 0 3 3h14a3 3 0 0 0 3-3v-9zM7 8a1 1 0 0 1-1-1V3a1 1 0 0 1 2 0v4a1 1 0 0 1-1 1zm10 0a1 1 0 0 1-1-1V3a1 1 0 0 1 2 0v4a1 1 0 0 1-1 1z" opacity=".5" fill="currentColor"/><path class="uim-primary" d="M19 4h-1v3a1 1 0 0 1-2 0V4H8v3a1 1 0 0 1-2 0V4H5a3 3 0 0 0-3 3v3h20V7a3 3 0 0 0-3-3z" fill="currentColor"/></svg>