<svg xmlns="http://www.w3.org/2000/svg" xmlns:xlink="http://www.w3.org/1999/xlink" aria-hidden="true" role="img" style="vertical-align: -0.125em;" width="1em" height="1em" preserveAspectRatio="xMidYMid meet" viewBox="0 0 32 32"><path d="M10.28 5.28L7 8.563l-1.28-1.28L4.28 8.72l2 2l.72.686l.72-.687l4-4l-1.44-1.44zM15 7v2h13V7H15zm-4.72 6.28L7 16.564L5.72 15.28l-1.44 1.44l2 2l.72.686l.72-.687l4-4l-1.44-1.44zM15 15v2h13v-2H15zm-4.72 6.28L7 24.563l-1.28-1.28l-1.44 1.437l2 2l.72.686l.72-.687l4-4l-1.44-1.44zM15 23v2h13v-2H15z" fill="currentColor"/></svg>